<?xml version="1.0" encoding="UTF-8" standalone="no"?>
<svg
   version="1.1"
   width="16"
   height="16"
   id="svg4372"
   xml:space="preserve"
   xmlns:xlink="http://www.w3.org/1999/xlink"
   xmlns="http://www.w3.org/2000/svg"
   xmlns:svg="http://www.w3.org/2000/svg"
   xmlns:rdf="http://www.w3.org/1999/02/22-rdf-syntax-ns#"
   xmlns:cc="http://creativecommons.org/ns#"
   xmlns:dc="http://purl.org/dc/elements/1.1/"><defs
     id="defs4374"><linearGradient
       x1="23.999985"
       y1="7.1818104"
       x2="23.999985"
       y2="40.818172"
       id="linearGradient3304"
       xlink:href="#linearGradient3924-4-8"
       gradientUnits="userSpaceOnUse"
       gradientTransform="matrix(0.2972973,0,0,0.2972973,0.86486906,0.8648672)" /><linearGradient
       id="linearGradient3924-4-8"><stop
         id="stop3926-0-4"
         style="stop-color:#ffffff;stop-opacity:1"
         offset="0" /><stop
         id="stop3928-6-8"
         style="stop-color:#ffffff;stop-opacity:0.23529412"
         offset="0.10167469" /><stop
         id="stop3930-2-1"
         style="stop-color:#ffffff;stop-opacity:0.15686275"
         offset="0.95000005" /><stop
         id="stop3932-9-0"
         style="stop-color:#ffffff;stop-opacity:0.39215687"
         offset="1" /></linearGradient><linearGradient
       xlink:href="#linearGradient5-9"
       id="linearGradient10"
       x1="8"
       y1="1.9999969"
       x2="8"
       y2="13.999997"
       gradientUnits="userSpaceOnUse" /><linearGradient
       xlink:href="#linearGradient2-5"
       id="linearGradient13"
       x1="8"
       y1="1.5"
       x2="8"
       y2="13.999997"
       gradientUnits="userSpaceOnUse" /><linearGradient
       id="linearGradient5-9"><stop
         style="stop-color:#273445;stop-opacity:1;"
         offset="0"
         id="stop30-6" /><stop
         style="stop-color:#0e141f;stop-opacity:1;"
         offset="1"
         id="stop31-0" /></linearGradient><linearGradient
       id="linearGradient2-5"><stop
         style="stop-color:#a3907c;stop-opacity:1;"
         offset="0"
         id="stop7-6" /><stop
         style="stop-color:#8a715e;stop-opacity:1;"
         offset="1"
         id="stop8-94" /></linearGradient></defs><metadata
     id="metadata4377"><rdf:RDF><cc:Work
         rdf:about=""><dc:format>image/svg+xml</dc:format><dc:type
           rdf:resource="http://purl.org/dc/dcmitype/StillImage" /></cc:Work></rdf:RDF></metadata><rect
     width="13.000003"
     height="13.000003"
     rx="2"
     ry="2"
     x="1.5"
     y="1.499997"
     id="rect5505-21-2-8"
     style="color:#000000;display:inline;overflow:visible;visibility:visible;fill:url(#linearGradient13);stroke:#3d211b;stroke-width:1;stroke-linecap:round;stroke-linejoin:round;stroke-miterlimit:4;stroke-dasharray:none;stroke-dashoffset:0;stroke-opacity:0.5;marker:none;enable-background:accumulate" /><rect
     width="11"
     height="11"
     x="2.5"
     y="2.4999969"
     id="rect6741-0-3-5"
     style="opacity:0.3;fill:none;stroke:url(#linearGradient3304);stroke-width:1;stroke-linecap:round;stroke-linejoin:round;stroke-miterlimit:4;stroke-dasharray:none;stroke-dashoffset:0;stroke-opacity:1"
     rx="1"
     ry="1" /><rect
     style="fill:url(#linearGradient10);stroke:#0e141f;stroke-linejoin:round;stroke-opacity:0.498039"
     id="rect3"
     width="9"
     height="9"
     x="3.5"
     y="3.5"
     rx="0"
     ry="0" /><g
     id="layer4-0"
     transform="matrix(0.9047486,0,0,0.9047486,-534.51497,-685.56047)" /><g
     id="layer4-0-7"
     transform="matrix(0.9047486,0,0,0.9047486,-534.51497,-678.32248)" /><g
     id="layer1-3"
     transform="matrix(0.9047486,0,0,0.9047486,-37.80799,-9.5033369)" /><g
     id="layer4-0-4"
     transform="matrix(0.9047486,0,0,0.9047486,-534.51497,-685.56047)" /><g
     id="layer4-0-7-9"
     transform="matrix(0.9047486,0,0,0.9047486,-534.51497,-678.32248)" /><g
     id="layer1-3-2"
     transform="matrix(0.9047486,0,0,0.9047486,-37.80799,-9.5033369)" /><g
     id="layer4-0-3"
     transform="matrix(0.9047486,0,0,0.9047486,-534.51497,-685.56047)" /><g
     id="layer4-0-7-7"
     transform="matrix(0.9047486,0,0,0.9047486,-534.51497,-678.32248)" /><g
     id="layer1-3-5"
     transform="matrix(0.9047486,0,0,0.9047486,-37.80799,-9.5033369)" /><g
     id="layer4-0-4-9"
     transform="matrix(0.9047486,0,0,0.9047486,-534.51497,-685.56047)" /><g
     id="layer4-0-7-9-2"
     transform="matrix(0.9047486,0,0,0.9047486,-534.51497,-678.32248)" /><g
     id="layer1-3-2-2"
     transform="matrix(0.9047486,0,0,0.9047486,-37.80799,-9.5033369)" /><g
     id="path1"
     style="opacity:0.5" /><g
     id="path2"
     style="opacity:0.5" /><g
     id="path4"
     style="opacity:0.5" /><g
     id="layer4-0-6"
     transform="matrix(0.9047486,0,0,0.9047486,-534.51497,-685.56047)" /><g
     id="layer4-0-7-2"
     transform="matrix(0.9047486,0,0,0.9047486,-534.51497,-678.32248)" /><g
     id="layer1-3-6"
     transform="matrix(0.9047486,0,0,0.9047486,-37.80799,-9.5033369)" /><g
     id="layer4-0-4-1"
     transform="matrix(0.9047486,0,0,0.9047486,-534.51497,-685.56047)" /><g
     id="layer4-0-7-9-8"
     transform="matrix(0.9047486,0,0,0.9047486,-534.51497,-678.32248)" /><g
     id="layer1-3-2-7"
     transform="matrix(0.9047486,0,0,0.9047486,-37.80799,-9.5033369)" /><g
     id="layer4-0-3-9"
     transform="matrix(0.9047486,0,0,0.9047486,-534.51497,-685.56047)" /><g
     id="layer4-0-7-7-2"
     transform="matrix(0.9047486,0,0,0.9047486,-534.51497,-678.32248)" /><g
     id="layer1-3-5-0"
     transform="matrix(0.9047486,0,0,0.9047486,-37.80799,-9.5033369)" /><g
     id="layer4-0-4-9-2"
     transform="matrix(0.9047486,0,0,0.9047486,-534.51497,-685.56047)" /><g
     id="layer4-0-7-9-2-3"
     transform="matrix(0.9047486,0,0,0.9047486,-534.51497,-678.32248)" /><g
     id="layer1-3-2-2-7"
     transform="matrix(0.9047486,0,0,0.9047486,-37.80799,-9.5033369)" /><g
     id="g13"
     style="opacity:0.2"><path
       style="opacity:1;fill:none;stroke:#fafafa;stroke-linejoin:round;stroke-opacity:0.5"
       d="m 6.5,4 v 8"
       id="path10" /><path
       style="opacity:1;fill:none;stroke:#fafafa;stroke-linejoin:round;stroke-opacity:0.5"
       d="m 9.5,4 v 8"
       id="path11" /><path
       style="opacity:1;fill:none;stroke:#fafafa;stroke-linejoin:round;stroke-opacity:0.5"
       d="M 12,6.5 H 4"
       id="path12" /><path
       style="opacity:1;fill:none;stroke:#fafafa;stroke-linejoin:round;stroke-opacity:0.5"
       d="m 4,9.5 h 8"
       id="path13" /></g></svg>
